<svg width="128" height="128" viewBox="0 0 128 128" fill="none" xmlns="http://www.w3.org/2000/svg">
<path d="M12.1249 55.7382C12.1514 55.0886 12.4256 54.9146 13.0184 55.0351C13.3074 55.0938 13.6025 55.1121 13.8944 55.1474C16.5453 55.4647 15.941 55.0739 15.8319 57.6103C15.8172 57.9364 15.7786 58.2656 15.7137 58.5888C15.5987 59.1561 15.8792 59.3914 16.3954 59.4384C17.2004 59.5148 18.0054 59.5915 18.8133 59.6503C19.3059 59.6856 19.5564 59.8536 19.4325 60.4003C19.3441 60.7881 19.3351 61.1941 19.285 61.5937C19.1081 62.9747 19.1139 62.9214 17.66 62.7216C14.9765 62.3542 15.38 62.2546 15.0438 64.7499C14.9701 65.2908 14.997 65.8468 14.9911 66.3935C14.9822 66.993 15.0062 67.5928 15.6786 67.8691C16.4217 68.1746 17.1151 68.1013 17.7225 67.5312C18.4923 66.811 18.9349 65.8937 19.3094 64.9384C19.8816 63.4805 20.4383 62.0164 21.0253 60.5614C22.3642 57.246 26.6053 55.9288 29.5428 56.5194C33.3208 57.2778 35.0431 60.9698 34.9842 63.5917C34.9341 65.8197 34.9605 68.0541 34.9989 70.2821C35.0107 70.9139 34.9019 71.2727 34.1737 71.1435C34.0322 71.117 33.8787 71.1405 33.7313 71.1405C32.4082 71.1405 31.6256 70.5476 31.3837 69.3622C28.6084 71.1376 26.2337 71.2375 24.703 69.6415C23.5646 68.454 23.521 66.2081 24.6063 64.662C25.9099 62.8074 28.5225 62.296 31.1503 63.4394L31.1561 63.4364C31.3743 61.8583 30.9293 60.7383 29.8797 60.1444C28.3284 59.2656 26.7061 59.3831 25.3524 60.4794C24.4086 61.2436 23.8748 62.2785 23.4501 63.3808C22.7806 65.1149 22.1549 66.8637 21.2967 68.5185C19.8191 71.3666 15.2327 72.4125 12.6756 70.4755C11.3695 69.485 11.0652 68.0623 11.0799 66.5693C11.0918 65.3672 11.2046 64.1561 11.4051 62.9716C11.5436 62.143 11.2544 61.911 10.5087 61.955C10.3259 61.9667 10.1397 61.9433 9.9569 61.9374C9.25201 61.911 8.85107 61.6372 9.05162 60.8583C9.0781 60.7555 9.05448 60.6379 9.06627 60.5292C9.23438 58.748 9.23711 58.7005 11.0272 58.8944C11.6584 58.9621 11.8032 58.7271 11.8592 58.2392C11.9566 57.4045 12.0924 56.5728 12.1249 55.7382ZM29.7518 65.5136C28.3983 65.546 27.363 66.3279 27.4071 67.2948C27.4395 68.0356 27.7909 68.4534 28.5253 68.3388C29.9084 68.3211 31.2591 67.4625 31.1971 66.6454C31.1322 65.7872 30.5452 65.496 29.7518 65.5136Z" fill="black"/>
<path d="M43.048 55.968C46.24 55.968 48.304 58.344 48.304 62.616C48.304 67.224 45.472 69.456 42.496 69.456C41.032 69.456 40.024 69.048 39.328 68.448V74.424H35.584V56.424L38.656 56.136C38.8 56.424 38.992 56.88 39.136 57.528C39.952 56.688 41.224 55.968 43.048 55.968ZM41.728 66.432C43.144 66.432 44.488 65.568 44.488 62.616C44.488 60.192 43.504 59.088 41.896 59.088C40.672 59.088 39.856 59.736 39.328 60.456V65.208C39.88 65.952 40.672 66.432 41.728 66.432Z" fill="black"/>
<path d="M61.632 68.968C64.176 68.968 65.88 70.648 65.88 73.816V82H62.136V74.488C62.136 72.952 61.584 72.256 60.36 72.256C59.496 72.256 58.728 72.664 58.056 73.384V73.816V82H54.312V74.488C54.312 72.952 53.712 72.256 52.632 72.256C51.744 72.256 50.976 72.616 50.328 73.264V82H46.584V69.424L49.656 69.136C49.8 69.4 49.92 69.832 50.04 70.312C51.024 69.472 52.272 68.968 53.808 68.968C55.368 68.968 56.616 69.592 57.336 70.816C58.392 69.64 59.808 68.968 61.632 68.968ZM75.0399 78.64L77.7759 69.424H81.6639L77.5359 82.144C76.3119 85.888 74.4399 87.88 70.3839 87.88C69.6159 87.88 68.7999 87.784 68.2719 87.616L68.5839 84.736C68.9679 84.832 69.4239 84.88 70.1439 84.88C72.2319 84.88 73.4799 83.92 73.9839 82.168L74.0319 82H72.5919L67.9359 69.424H72.1119L75.0399 78.64Z" fill="black"/>
<path d="M85.4052 61.0431C85.9724 60.9214 86.2366 61.0382 86.2724 61.6418C86.2917 61.9823 86.3941 62.3177 86.4492 62.6554C86.6567 63.9527 87.3937 64.5233 88.6601 64.3664C88.9326 64.3332 89.205 64.2969 89.4775 64.2609C89.5464 64.2526 89.6155 64.2442 89.6816 64.2248C90.3753 64.0395 90.4967 64.5685 90.4306 64.9865C90.3207 65.6953 91.3361 66.6391 90.0888 67.0959C89.5547 67.2924 88.9433 67.2899 88.3623 67.3342C87.5418 67.3951 87.0928 67.7277 87.1699 68.633C87.2607 69.6601 87.2914 70.693 87.3437 71.7228C87.3713 72.293 87.4621 72.8245 88.084 73.0627C88.7144 73.3063 89.3123 73.2288 89.8271 72.797C90.5292 72.2073 90.9455 71.4126 91.2842 70.5793C91.9284 68.9901 92.4623 67.3509 93.2002 65.8088C94.9486 62.1513 99.4068 60.7557 102.805 62.7492C104.718 63.8733 105.808 65.6124 105.924 67.7941C106.061 70.3689 105.965 72.9579 105.987 75.5383C105.99 75.9615 105.897 76.1879 105.418 76.1271C105.148 76.0911 104.867 76.1222 104.595 76.1222C103.447 76.1222 102.843 75.5256 102.782 74.3332C100.585 76.0248 98.3324 76.6264 96.2177 74.4142C95.1879 73.3372 95.4447 71.1275 96.5185 69.8234C97.8561 68.1962 100.091 67.8074 102.402 68.8439C102.624 66.942 102.043 65.8971 100.577 65.4738C98.5313 64.8841 96.7579 65.554 95.9814 67.3205C95.4749 68.4777 95.1799 69.7261 94.6816 70.8888C93.8308 72.8739 93.0105 74.9147 90.8135 75.8644C89.646 76.3683 88.4392 76.5345 87.1836 76.2853C84.9509 75.8451 83.921 74.6907 83.7832 72.4152C83.7116 71.2468 83.6379 70.0748 83.6572 68.9064C83.6709 68.1371 83.3594 68.0601 82.7236 68.1984C81.3276 68.503 81.3245 68.4828 81.1152 67.1261C80.884 65.6175 80.8759 65.5647 82.3076 65.3654C83.0591 65.2602 83.1774 64.9531 83.0371 64.3C82.8801 63.5607 82.8412 62.7964 82.665 62.0627C82.5246 61.4786 82.737 61.343 83.2627 61.3097C83.9813 61.2627 84.7031 61.1926 85.4052 61.0431ZM101.142 70.8312C99.8229 70.8729 98.8868 71.5789 98.9502 72.4953C98.9942 73.1513 99.2861 73.6052 100.046 73.5334C101.194 73.5168 102.513 72.6528 102.475 71.9025C102.433 71.0803 101.871 70.8091 101.142 70.8312Z" fill="black"/>
<path d="M114.12 62.968C117.48 62.968 119.352 65.56 119.352 69.52C119.352 74.704 116.016 76.456 111.888 76.456C109.752 76.456 107.64 76.048 106.584 75.64L106.632 75.592V58.264L110.4 57.976V64.264C111.288 63.472 112.464 62.968 114.12 62.968ZM111.912 73.6C114.48 73.6 115.536 71.992 115.536 69.52C115.536 67.072 114.48 66.088 112.944 66.088C111.84 66.088 110.976 66.616 110.4 67.384V73.36C110.736 73.504 111.216 73.6 111.912 73.6Z" fill="black"/>
<path d="M17 78H41" stroke="#FF9494" stroke-width="3" stroke-linecap="round"/>
<path d="M56 64H73" stroke="#9FFFA5" stroke-width="3" stroke-linecap="round"/>
<path d="M93 82H109" stroke="#9FFFF5" stroke-width="3" stroke-linecap="round"/>
</svg>
